<?xml version="1.0" encoding="UTF-8"?>
<svg xmlns="http://www.w3.org/2000/svg" xmlns:xlink="http://www.w3.org/1999/xlink" width="100px" height="100px" viewBox="0 0 100 99" version="1.1">
<g id="surface1">
<path style=" stroke:none;fill-rule:nonzero;fill:rgb(100%,82.352942%,25.882354%);fill-opacity:1;" d="M 77.207031 24.9375 C 78.351562 24.933594 79.492188 24.933594 80.632812 24.933594 C 81.164062 24.933594 81.691406 24.929688 82.222656 24.929688 C 82.683594 24.929688 83.148438 24.929688 83.609375 24.929688 C 83.855469 24.929688 84.097656 24.929688 84.34375 24.925781 C 84.574219 24.925781 84.804688 24.925781 85.035156 24.925781 C 85.121094 24.925781 85.203125 24.925781 85.289062 24.925781 C 86.058594 24.921875 86.828125 24.960938 87.582031 25.121094 L 87.734375 25.15625 C 88.621094 25.351562 89.480469 25.65625 90.292969 26.054688 L 90.390625 26.101562 C 91.144531 26.46875 91.84375 26.9375 92.5 27.464844 L 92.617188 27.554688 C 93.246094 28.054688 93.859375 28.625 94.375 29.246094 L 94.429688 29.308594 C 96.007812 31.1875 97.121094 33.382812 97.910156 35.691406 C 97.941406 35.78125 97.972656 35.871094 98.003906 35.960938 C 99.269531 39.566406 99.675781 43.492188 97.085938 64.371094 C 97.003906 64.535156 96.921875 64.699219 96.835938 64.859375 C 96.804688 64.925781 96.773438 64.988281 96.742188 65.050781 C 96.464844 65.589844 96.167969 66.105469 95.832031 66.609375 L 95.773438 66.699219 C 95.515625 67.078125 95.246094 67.449219 94.957031 67.808594 L 94.867188 67.925781 C 94.65625 68.183594 94.433594 68.429688 94.203125 68.671875 C 94.097656 68.785156 93.996094 68.898438 93.894531 69.015625 C 93.683594 69.25 93.449219 69.460938 93.207031 69.671875 L 93.140625 69.734375 C 91.09375 71.535156 88.527344 72.675781 85.816406 73.019531 L 85.703125 73.03125 C 84.78125 73.136719 83.847656 73.117188 82.921875 73.113281 C 82.746094 73.113281 82.566406 73.113281 82.390625 73.113281 C 82.082031 73.113281 81.773438 73.113281 81.464844 73.113281 C 81.007812 73.113281 80.546875 73.109375 80.089844 73.109375 C 79.316406 73.109375 78.546875 73.109375 77.773438 73.109375 C 77.011719 73.105469 76.246094 73.105469 75.480469 73.105469 L 75.339844 73.105469 L 74.613281 73.101562 C 72.902344 73.101562 71.195312 73.097656 69.484375 73.097656 C 67.824219 73.09375 66.164062 73.089844 64.503906 73.089844 L 64.347656 73.089844 L 59.515625 73.082031 C 57.027344 73.078125 54.535156 73.074219 52.042969 73.074219 L 51.9375 73.074219 L 49.875 73.070312 L 49.875 76.425781 L 74.042969 76.425781 C 74.085938 89.640625 74.085938 89.640625 73.207031 91.253906 C 73.183594 91.296875 73.160156 91.339844 73.136719 91.386719 C 72.5625 92.398438 71.722656 93.332031 70.792969 94.027344 L 70.710938 94.09375 C 69.15625 95.277344 67.394531 96.105469 65.542969 96.722656 L 65.410156 96.765625 C 61.984375 97.90625 58.359375 98.363281 54.769531 98.574219 L 54.636719 98.582031 C 54.382812 98.59375 54.128906 98.609375 53.875 98.621094 C 53.792969 98.625 53.714844 98.628906 53.632812 98.632812 C 52.664062 98.683594 51.691406 98.675781 50.722656 98.675781 C 50.523438 98.675781 50.328125 98.675781 50.128906 98.675781 C 48.457031 98.683594 46.789062 98.644531 45.121094 98.511719 L 44.984375 98.5 C 41.875 98.253906 38.761719 97.785156 35.792969 96.804688 L 35.640625 96.753906 C 33.589844 96.085938 31.554688 95.148438 29.875 93.78125 L 29.808594 93.726562 C 29.457031 93.441406 29.121094 93.140625 28.792969 92.828125 L 28.6875 92.730469 C 28.488281 92.535156 28.308594 92.332031 28.136719 92.117188 C 28.074219 92.042969 28.015625 91.96875 27.953125 91.894531 C 26.519531 90.222656 25.800781 88.082031 25.8125 85.902344 C 25.8125 85.804688 25.8125 85.707031 25.8125 85.609375 C 25.8125 85.347656 25.8125 85.085938 25.8125 84.824219 C 25.8125 84.570312 25.8125 84.316406 25.8125 84.0625 C 25.8125 83.542969 25.8125 83.019531 25.816406 82.5 C 25.816406 81.988281 25.816406 81.472656 25.816406 80.957031 L 25.816406 80.46875 C 25.816406 79.28125 25.816406 78.09375 25.820312 76.902344 C 25.820312 75.578125 25.820312 74.25 25.820312 72.921875 L 25.820312 72.613281 C 25.820312 71.507812 25.820312 70.40625 25.824219 69.300781 L 25.824219 68.335938 C 25.824219 67.65625 25.824219 66.980469 25.824219 66.304688 C 25.824219 66.023438 25.824219 65.742188 25.824219 65.464844 C 25.828125 65.207031 25.828125 64.949219 25.828125 64.695312 C 25.828125 64.601562 25.828125 64.507812 25.828125 64.417969 C 25.828125 63.574219 25.832031 62.726562 25.925781 61.886719 L 25.941406 61.746094 C 26.234375 59.292969 27.109375 56.898438 28.820312 55.070312 C 28.902344 54.984375 28.976562 54.898438 29.050781 54.808594 C 29.484375 54.3125 30.007812 53.902344 30.542969 53.519531 L 30.617188 53.464844 C 33.351562 51.496094 36.765625 50.777344 40.089844 50.777344 L 40.402344 50.777344 C 40.628906 50.777344 40.855469 50.777344 41.082031 50.777344 C 41.417969 50.777344 41.757812 50.777344 42.09375 50.777344 C 42.625 50.777344 43.160156 50.777344 43.691406 50.777344 C 44.535156 50.777344 45.382812 50.773438 46.230469 50.773438 L 47.316406 50.773438 C 48.21875 50.773438 49.117188 50.769531 50.015625 50.769531 C 50.894531 50.769531 51.773438 50.769531 52.652344 50.769531 L 52.765625 50.769531 L 53.675781 50.765625 C 55.113281 50.765625 56.546875 50.765625 57.984375 50.761719 L 58.089844 50.761719 C 58.648438 50.761719 59.210938 50.761719 59.769531 50.761719 C 60.335938 50.761719 60.902344 50.761719 61.464844 50.761719 C 61.769531 50.761719 62.074219 50.761719 62.382812 50.761719 C 65.132812 50.761719 67.789062 50.535156 70.292969 49.292969 L 70.382812 49.246094 C 71.265625 48.808594 72.054688 48.242188 72.792969 47.59375 L 72.859375 47.535156 C 73.089844 47.332031 73.316406 47.125 73.511719 46.890625 C 73.5625 46.832031 73.609375 46.777344 73.664062 46.722656 C 75.816406 44.449219 76.875 41.128906 77.125 38.066406 L 77.136719 37.957031 C 77.179688 37.410156 77.175781 36.863281 77.175781 36.316406 C 77.175781 36.164062 77.175781 36.011719 77.175781 35.855469 C 77.175781 35.59375 77.179688 35.328125 77.179688 35.0625 C 77.179688 34.679688 77.179688 34.296875 77.183594 33.917969 C 77.183594 33.296875 77.1875 32.675781 77.1875 32.054688 C 77.1875 31.453125 77.191406 30.847656 77.191406 30.246094 L 77.191406 30.132812 L 77.195312 29.574219 C 77.199219 28.027344 77.203125 26.480469 77.207031 24.9375 M 60.75 83.507812 L 60.6875 83.5625 C 60.03125 84.167969 59.589844 84.921875 59.375 85.785156 L 59.347656 85.898438 C 59.121094 86.988281 59.386719 88.121094 59.957031 89.058594 C 60.617188 90.046875 61.59375 90.703125 62.75 90.964844 C 63.886719 91.191406 65.023438 90.953125 66 90.34375 C 66.203125 90.203125 66.394531 90.046875 66.582031 89.886719 L 66.667969 89.816406 C 67.464844 89.085938 67.90625 87.964844 67.957031 86.90625 C 67.980469 85.726562 67.574219 84.625 66.761719 83.765625 C 65.945312 82.9375 64.886719 82.453125 63.71875 82.417969 C 62.636719 82.40625 61.546875 82.769531 60.75 83.507812 "/>
<path style=" stroke:none;fill-rule:nonzero;fill:rgb(21.176471%,44.705883%,64.313728%);fill-opacity:1;" d="M 70.167969 5.054688 L 70.234375 5.109375 C 70.847656 5.605469 71.441406 6.164062 71.917969 6.792969 C 71.957031 6.84375 71.996094 6.898438 72.039062 6.949219 C 72.296875 7.285156 72.535156 7.628906 72.75 7.996094 L 72.796875 8.074219 C 73.566406 9.34375 74.050781 10.863281 74.046875 12.351562 L 74.046875 12.476562 C 74.046875 12.613281 74.046875 12.75 74.046875 12.882812 L 74.046875 13.179688 C 74.046875 13.421875 74.046875 13.664062 74.046875 13.910156 C 74.042969 14.199219 74.042969 14.488281 74.042969 14.78125 C 74.042969 15.484375 74.042969 16.1875 74.042969 16.890625 C 74.039062 17.222656 74.039062 17.554688 74.039062 17.886719 C 74.039062 19.316406 74.035156 20.746094 74.035156 22.171875 L 74.035156 22.28125 C 74.03125 23.4375 74.03125 24.59375 74.03125 25.746094 C 74.027344 27.105469 74.027344 28.464844 74.023438 29.820312 L 74.023438 29.921875 C 74.023438 30.453125 74.023438 30.984375 74.023438 31.515625 C 74.023438 32.050781 74.019531 32.585938 74.019531 33.117188 C 74.019531 33.410156 74.019531 33.699219 74.019531 33.988281 C 74.019531 37.4375 73.535156 40.921875 71.085938 43.566406 C 71.007812 43.652344 70.929688 43.738281 70.855469 43.828125 C 70.589844 44.128906 70.304688 44.394531 69.992188 44.644531 C 69.917969 44.703125 69.847656 44.761719 69.773438 44.824219 C 67.820312 46.488281 65.195312 47.335938 62.691406 47.730469 L 62.574219 47.75 C 61.777344 47.867188 60.984375 47.898438 60.179688 47.894531 L 59.867188 47.894531 C 59.640625 47.894531 59.414062 47.898438 59.1875 47.894531 C 58.851562 47.894531 58.511719 47.898438 58.175781 47.898438 C 57.609375 47.898438 57.042969 47.898438 56.476562 47.898438 C 55.699219 47.898438 54.925781 47.898438 54.148438 47.898438 L 53.0625 47.902344 L 52.953125 47.902344 C 52.09375 47.902344 51.230469 47.902344 50.371094 47.902344 L 50.257812 47.902344 L 46.59375 47.90625 C 45.738281 47.90625 44.878906 47.90625 44.019531 47.910156 L 42.824219 47.910156 C 42.050781 47.910156 41.277344 47.910156 40.503906 47.910156 C 39.9375 47.914062 39.375 47.914062 38.808594 47.914062 C 38.472656 47.914062 38.140625 47.914062 37.804688 47.914062 C 37.554688 47.914062 37.304688 47.914062 37.050781 47.914062 C 36.953125 47.914062 36.851562 47.914062 36.75 47.914062 C 35.785156 47.914062 34.8125 47.957031 33.855469 48.097656 L 33.765625 48.113281 C 32.394531 48.316406 31.039062 48.675781 29.792969 49.292969 L 29.679688 49.347656 C 28.625 49.863281 27.675781 50.511719 26.832031 51.324219 L 26.75 51.402344 C 26.375 51.761719 26.027344 52.121094 25.71875 52.535156 C 25.664062 52.609375 25.609375 52.679688 25.554688 52.75 C 24.828125 53.695312 24.277344 54.777344 23.832031 55.878906 L 23.792969 55.976562 C 23.265625 57.289062 22.960938 58.699219 22.792969 60.105469 L 22.78125 60.1875 C 22.703125 60.84375 22.695312 61.496094 22.695312 62.152344 C 22.695312 62.308594 22.695312 62.464844 22.695312 62.621094 C 22.691406 62.890625 22.691406 63.160156 22.691406 63.429688 C 22.691406 63.816406 22.691406 64.207031 22.6875 64.597656 C 22.6875 65.226562 22.683594 65.859375 22.683594 66.492188 C 22.683594 67.101562 22.679688 67.714844 22.679688 68.328125 L 22.679688 69.015625 C 22.671875 70.585938 22.671875 72.160156 22.667969 73.730469 C 21.484375 73.734375 20.296875 73.738281 19.113281 73.738281 C 18.566406 73.738281 18.015625 73.738281 17.464844 73.742188 C 16.984375 73.742188 16.503906 73.742188 16.027344 73.742188 C 15.773438 73.742188 15.519531 73.746094 15.265625 73.746094 C 15.027344 73.746094 14.785156 73.746094 14.546875 73.746094 C 14.460938 73.746094 14.371094 73.746094 14.285156 73.746094 C 13.507812 73.75 12.738281 73.6875 11.980469 73.496094 L 11.851562 73.464844 C 11.078125 73.269531 10.339844 73.003906 9.625 72.65625 L 9.519531 72.605469 C 8.734375 72.222656 8.007812 71.753906 7.332031 71.207031 L 7.269531 71.152344 C 6.496094 70.527344 5.78125 69.832031 5.167969 69.050781 L 5.074219 68.9375 C 4.585938 68.320312 4.136719 67.664062 3.75 66.980469 L 3.695312 66.886719 C 1.984375 63.878906 1.089844 60.546875 0.0859375 52.25 C 0.0859375 52.179688 0.0820312 52.109375 0.078125 52.039062 C 0.0351562 51.140625 0.0351562 50.238281 0.0351562 49.335938 L 0.0351562 49.21875 C 0.0351562 48.054688 0.0390625 46.894531 0.125 45.730469 L 0.132812 45.617188 C 0.296875 43.28125 0.609375 40.957031 1.207031 38.6875 L 1.246094 38.539062 C 1.980469 35.695312 3.203125 32.9375 5.082031 30.652344 L 5.140625 30.585938 C 5.453125 30.199219 5.800781 29.847656 6.152344 29.5 L 6.21875 29.429688 C 6.507812 29.140625 6.804688 28.875 7.125 28.621094 C 7.175781 28.582031 7.226562 28.539062 7.277344 28.496094 C 7.691406 28.15625 8.128906 27.867188 8.582031 27.585938 L 8.671875 27.53125 C 10.683594 26.273438 13.113281 25.585938 15.488281 25.59375 L 15.671875 25.59375 C 15.835938 25.59375 16.003906 25.59375 16.167969 25.59375 C 16.347656 25.597656 16.527344 25.597656 16.710938 25.597656 C 17.027344 25.597656 17.339844 25.597656 17.65625 25.597656 C 18.128906 25.597656 18.597656 25.597656 19.066406 25.597656 C 19.855469 25.601562 20.648438 25.601562 21.4375 25.601562 C 22.21875 25.605469 23.003906 25.605469 23.785156 25.605469 L 24.671875 25.605469 C 26.421875 25.609375 28.171875 25.609375 29.921875 25.613281 C 31.621094 25.617188 33.324219 25.617188 35.023438 25.621094 L 35.179688 25.621094 L 40.125 25.628906 C 42.675781 25.628906 45.226562 25.632812 47.777344 25.636719 L 47.886719 25.636719 L 50 25.640625 L 50 22.285156 L 25.832031 22.285156 C 25.773438 7.859375 25.773438 7.859375 28.234375 5.390625 C 28.476562 5.152344 28.730469 4.929688 29 4.722656 L 29.152344 4.601562 C 32.132812 2.257812 36.082031 1.25 46.625 0.0429688 L 46.734375 0.0351562 C 50.652344 -0.132812 54.613281 0.0273438 70.167969 5.054688 M 35.125 7.789062 L 35 7.820312 C 34.425781 7.992188 33.917969 8.28125 33.457031 8.65625 L 33.359375 8.734375 C 32.550781 9.402344 32.0625 10.433594 31.929688 11.460938 C 31.828125 12.664062 32.152344 13.808594 32.933594 14.742188 C 33.636719 15.542969 34.632812 16.128906 35.707031 16.238281 C 36.996094 16.304688 38.082031 16.046875 39.082031 15.203125 L 39.167969 15.136719 C 40.023438 14.449219 40.449219 13.363281 40.574219 12.308594 C 40.679688 11.320312 40.378906 10.222656 39.773438 9.429688 C 39.683594 9.320312 39.59375 9.21875 39.5 9.113281 L 39.414062 9.003906 C 38.796875 8.25 37.707031 7.761719 36.75 7.664062 C 36.199219 7.636719 35.660156 7.640625 35.125 7.789062 "/>
</g>
</svg>
